<?xml version="1.0" encoding="UTF-8"?><svg id="a" xmlns="http://www.w3.org/2000/svg" viewBox="0 0 359.25 335.55"><defs><style>.b{fill:#f0f0f0;}</style></defs><path class="b" d="M255.62,167.79h4.25c26.33,0,52.65,0,78.98,0,6.5,0,8.09,1.52,8.59,8,3.65,47.01,7.31,94.03,10.96,141.04,.3,3.86,.67,7.71,.83,11.57,.2,4.58-2.11,6.97-6.66,7.13-.87,.03-1.75,0-2.62,0-113.54,0-227.09,0-340.63,0-8.05,0-9.68-1.66-9.27-9.7,2.88-57.07,5.79-114.15,8.67-171.22,1.06-21.06,2.1-42.12,3.13-63.18,.27-5.63,2.17-7.49,7.89-7.5,13.2-.02,26.41,0,40.08,0,0-9.44-.16-18.64,.07-27.82,.12-4.83,.42-9.76,1.47-14.46C68.04,11.94,98.75-6.16,128.11,1.97c2.23,.62,4.93,.62,7.16,0,33.7-9.36,67.66,15.79,68.26,50.75,.17,10.22,.03,20.44,.03,31.2h4.15c11.85,0,23.71,0,35.56,0,6.22,0,7.99,1.75,8.3,7.87,1.23,24.8,2.49,49.6,3.74,74.4,.02,.36,.14,.71,.32,1.6ZM23.59,96.06c-3.79,75.79-7.57,151.48-11.35,227.27H143.88c.17-.55,.36-.89,.38-1.24,1.81-23.51,3.6-47.01,5.4-70.52,1.86-24.25,3.85-48.5,5.51-72.77,.82-11.91,3.42-11.08,12.29-11.02,9.2,.06,18.39,.01,28.01,.01-1.21-24.15-2.39-47.89-3.58-71.6h-24.26c0,5.52,.02,10.75,0,15.99-.02,4.93-2.34,7.78-6.17,7.66-3.69-.12-5.78-2.85-5.8-7.65-.02-5.32,0-10.65,0-16.03H71.81c0,12.46-.04,24.68,.08,36.89,0,.95,1.01,2.17,1.88,2.79,4.07,2.88,8.23,5.63,12.41,8.35,2.53,1.65,3.63,3.86,3.62,6.9-.07,15.22,0,30.45-.05,45.67-.01,4.68-2.24,6.94-6.87,6.96-11.35,.06-22.71,.05-34.06,0-4.68-.02-6.94-2.23-6.95-6.87-.05-15.35,0-30.7-.04-46.05,0-2.91,1.13-4.98,3.54-6.55,3.98-2.57,7.83-5.34,11.86-7.83,1.9-1.18,2.74-2.48,2.65-4.78-.19-4.73-.06-9.48-.06-14.22,0-7.07,0-14.14,0-21.36H23.59Zm264.3,83.95h-120.72c-3.68,47.87-7.34,95.53-11,143.26h142.74c-3.68-47.89-7.34-95.48-11.01-143.26ZM155.52,83.77c0-11.4,.65-22.52-.16-33.54-1.05-14.18-8.33-25.02-20.53-32.51-2.17-1.33-3.93-1.44-6.15-.08-9.8,6-17.51,14.21-19.17,25.52-1.96,13.3-1.72,26.93-2.44,40.61h48.46Zm144.38,96.18c3.38,43.88,6.72,87.3,10.14,131.82,4.62-6.94,8.66-12.9,12.54-18.95,.52-.81,.41-2.15,.3-3.21-2.85-29.04-5.72-58.07-8.61-87.1-.75-7.52-1.58-15.03-2.37-22.55h-12Zm-108.6-96.11c.1-.93,.28-1.86,.28-2.8,.02-9.22,.18-18.45-.05-27.66-.35-13.81-6.14-24.99-17.23-33.24-7.56-5.63-16.13-8.25-26.62-8.03,2.01,1.85,3.32,2.96,4.51,4.19,9.97,10.31,15.13,22.68,15.4,37,.17,8.97,.04,17.94,.04,26.92,0,1.18,0,2.37,0,3.63h23.66Zm-95.54-.09c0-10.12-.08-19.94,.02-29.76,.15-15.33,5.74-28.39,16.81-39.01,.82-.79,2.19-1,3.3-1.48l-1.35-1.32c-18.84-.74-37.44,12.28-40.93,30.99-2.45,13.16-1.77,26.9-2.51,40.59h24.65Zm248.72,221.62l.93-.23c-3.2-41.67-6.4-83.34-9.6-125.08h-11.59c0,1.04-.07,1.79,0,2.53,3.39,33.62,7.14,67.2,9.95,100.87,.76,9.17,6.13,14.99,10.3,21.91ZM77.58,191.58c.08-.62,.2-1.09,.2-1.56,.01-11.6,.06-23.19-.06-34.78-.01-1.12-.78-2.61-1.68-3.29-9.74-7.36-9.73-7.26-19.78-.59-1.92,1.27-2.5,2.64-2.48,4.86,.11,10.72,.05,21.44,.06,32.17,0,1.07,.14,2.14,.21,3.2h23.52Zm126.33-95.5c1.19,23.91,2.37,47.64,3.56,71.46h12.65c-1.42-23.99-2.82-47.72-4.22-71.46h-11.99Zm39.48,71.53c-1.2-23.99-2.4-47.77-3.59-71.41h-11.88c1.42,24.02,2.81,47.72,4.21,71.41h11.26Zm98.62,155.76c-4.38-6.55-8.37-12.51-12.66-18.94-4.31,6.46-8.33,12.49-12.63,18.94h25.29Z"/><path class="b" d="M191.6,234.96c0-7.98-.02-15.96,0-23.94,.02-4.47,2.21-7.14,5.81-7.25,3.73-.11,6.14,2.67,6.15,7.28,.03,14.96,0,29.93,.01,44.89,.01,12.39,7.35,19.66,19.83,19.69,3.12,0,6.23,.03,9.35,0,11.14-.11,18.69-7.68,18.72-18.91,.05-14.71,.01-29.43,.01-44.14,0-1.12-.07-2.26,.06-3.36,.39-3.25,2.97-5.6,6.06-5.42,3.3,.2,5.32,2.09,5.75,5.33,.27,2.09,.1,4.23,.1,6.35,0,13.72,.05,27.43,0,41.15-.07,17.99-12.94,30.92-30.87,30.95-5.47,.01-11.04,.23-16.39-.65-14.2-2.32-24.33-14.43-24.57-28.79-.13-7.73-.02-15.46-.02-23.19h-.01Z"/></svg>