<?xml version="1.0" encoding="UTF-8"?><svg id="a" xmlns="http://www.w3.org/2000/svg" viewBox="0 0 384 384"><defs><style>.b{fill:#fff;}.c{fill:#161826;}</style></defs><path class="c" d="M0,204.34v-23.95c.3-2.46,.64-4.91,.91-7.37,4.47-41,19.78-77.52,47.7-107.93C95.61,13.9,154.12-6.72,222.8,3.36c39.09,5.71,73.28,22.96,101.34,50.71,49.86,49.32,68.73,109.11,54.81,177.74-11.87,58.68-46.09,101.86-98.61,130.44-11.24,6.06-23.14,10.82-35.46,14.17V234.81h41c2.08-16.13,4.12-31.87,6.22-48.12h-47.15c-.12-.62-.21-1.26-.26-1.89,0-10.86-.15-21.72,.15-32.56,.32-12,6.67-18.42,18.66-19,8.59-.4,17.21-.21,25.82-.27h3.94v-42.9c-15.37-1.27-30.57-2.93-45.71-1.08-7.53,.85-14.88,2.9-21.76,6.08-20,9.6-28.7,27-30.23,48.21-.93,12.92-.39,25.94-.51,38.91v4.77h-40.97v47.81h41v145.17c0,1.35-.24,2.7-.36,4.05h-15c-.82-.26-1.65-.46-2.5-.59-23.1-1.69-45.29-7.12-66.12-17.28C51.89,337.24,15.86,290.45,3.02,225.74,1.6,218.69,.98,211.48,0,204.34Z"/><path class="b" d="M194.67,384c.12-1.35,.36-2.7,.36-4.05V234.78h-40.95v-47.81h41v-4.77c.12-13-.42-26,.51-38.91,1.49-21.22,10.24-38.61,30.2-48.22,6.88-3.2,14.22-5.27,21.76-6.14,15.14-1.85,30.34-.19,45.71,1.08v43h-3.94c-8.61,.06-17.23-.13-25.82,.27-12,.57-18.34,7-18.66,19-.3,10.84-.13,21.7-.15,32.56,.05,.63,.14,1.27,.26,1.89h47.19c-2.1,16.25-4.14,32-6.22,48.12h-41v141.57c12.32-3.35,24.22-8.11,35.46-14.17,52.52-28.58,86.72-71.76,98.61-130.4,13.92-68.63-5-128.42-54.81-177.74-28.1-27.79-62.29-45.04-101.38-50.75C154.08-6.72,95.6,13.9,48.61,65.07,20.69,95.48,5.38,131.97,.91,173c-.27,2.46-.61,4.91-.91,7.37V0H384V384H194.67Z"/><path class="b" d="M0,204.34c1,7.14,1.6,14.35,3,21.41,12.72,64.7,48.75,111.49,108.08,140.38,20.83,10.16,43,15.59,66.12,17.28,.85,.13,1.68,.33,2.5,.59H0V204.34Z"/></svg>