<?xml version="1.0" encoding="UTF-8"?><svg id="a" xmlns="http://www.w3.org/2000/svg" viewBox="0 0 508.84 510.43"><defs><style>.b{fill:#161826;}</style></defs><path class="b" d="M508.84,150.73v205.26c-.28,1.78-.63,3.55-.82,5.34-1.08,10-1.59,20.17-3.27,30.11-5.41,32-19.09,59.77-43.67,81.58-26.64,23.63-58.71,33.06-93.41,35.41-12,.81-24.11,1.35-36.16,2H178.09c-3.12-.27-6.24-.71-9.36-.79-20.42-.52-40.81-1.32-60.77-6.22-42-10.3-73.18-34.18-91.76-73.53-11.56-24.48-15.05-50.8-15.33-77.52C.3,297.43-.13,242.49,.04,187.55c.1-25,.36-50.17,5.77-74.83C15.39,69.07,39.21,36.31,80.03,16.93,104.18,5.45,130.14,2.08,156.5,1.45c70.36-1.67,140.73-2.49,211.06,.91,20.49,1,40.53,5,59.33,13.47,46.69,21.16,71.23,58.67,78.91,108.31,1.36,8.82,2.04,17.73,3.04,26.59ZM254.67,465.36v-.79c13.45,0,26.91,.4,40.34-.08,29-1,58.22-.69,86.93-4.31,39.22-5,65.73-27.59,75.33-66.63,3.84-15.63,5.18-32.16,5.45-48.31,.87-51.47,1.13-102.95,.76-154.42,0-20.58-1.24-41.14-3.68-61.57-5.16-41.14-30.71-68.92-71.43-77.08-17.44-3.49-35.57-4.52-53.41-4.78-47.47-.67-94.95-.75-142.44-.26-22.68,.27-45.62,.83-67.94,4.42-38.33,6.16-63.8,28.9-72.43,67.25-3.87,17.15-4.95,35.17-5.35,52.83-.94,41.33-1.19,82.67-.76,124,.3,28.35,1.09,56.8,3.8,85s15.91,51.54,40.74,66.82c16.5,10.2,35,14.32,54.08,15,36.66,1.4,73.34,2,110.01,2.91Z"/><path class="b" d="M254.45,386.45c-72.57-.46-131.3-59.51-130.76-131.49,.53-72.61,59.61-131.24,131.59-130.57,72.76,.67,131.23,59.69,130.43,131.66-.81,72.65-59.41,130.87-131.26,130.4Zm-84.6-131c.06,46.89,38.11,84.86,85,84.8,46.89-.06,84.86-38.11,84.8-85-.06-46.89-38.11-84.86-85-84.8h-.08c-46.76-.03-84.69,37.84-84.72,84.6,0,.13,0,.27,0,.4Z"/><path class="b" d="M421.43,119.32c-.07,16.86-13.78,30.47-30.64,30.4-16.86-.07-30.47-13.78-30.4-30.64,.07-16.79,13.67-30.37,30.46-30.4,16.78-.11,30.47,13.41,30.58,30.2,0,.15,0,.29,0,.44Z"/></svg>