<?xml version="1.0" encoding="utf-8"?>
<!-- Generator: Adobe Illustrator 26.2.1, SVG Export Plug-In . SVG Version: 6.00 Build 0)  -->
<svg version="1.1" id="a" xmlns="http://www.w3.org/2000/svg" xmlns:xlink="http://www.w3.org/1999/xlink" x="0px" y="0px"
	 viewBox="0 0 289 492" style="enable-background:new 0 0 289 492;" xml:space="preserve">
<style type="text/css">
	.st0{fill:#FFFFFF;}
</style>
<path class="st0" d="M7.8,226.8L226.8,7.9c5.1-5.1,11.8-7.9,19-7.9s14,2.8,19,7.9L281,24c10.5,10.5,10.5,27.6,0,38.1L97.1,245.9
	L281.2,430c5.1,5.1,7.9,11.8,7.9,19s-2.8,14-7.9,19l-16.1,16.1c-5.1,5.1-11.8,7.9-19,7.9s-14-2.8-19-7.9L7.8,265
	C2.8,259.9,0,253.1,0,245.9C0,238.7,2.8,231.9,7.8,226.8z"/>
</svg>
