<?xml version="1.0" encoding="UTF-8"?><svg id="a" xmlns="http://www.w3.org/2000/svg" viewBox="0 0 90.4 13.57"><path d="M23.08,2.23c.25,.36,.48,.68,.7,1.01,.05,.07,.06,.19,.04,.28-.54,2.66-1.05,5.33-1.9,7.93-.11,.32-.21,.65-.33,.99,1.56-.08,3.03-.38,4.22-1.44,1.33-1.17,1.87-2.69,1.84-4.43-.04-2.01-.72-3.74-2.35-5.01-2.07-1.61-5.4-1.24-7.01,.77-.47,.59-.74,1.26-.8,2.01-.02,.18-.01,.4-.24,.41-.17,0-.36-.05-.5-.15-.17-.13-.31-.32-.43-.5-.07-.12-.13-.28-.1-.41,.15-.8,.54-1.5,1.19-1.99C19.66,.03,22.13-.55,24.74,.6c2.33,1.03,3.62,2.97,4.03,5.47,.23,1.4,.15,2.78-.55,4.05-.98,1.79-2.54,2.82-4.5,3.23-.69,.14-1.41,.15-2.11,.21-.08,0-.18,.02-.23-.02-.28-.23-.62-.43-.79-.72-.15-.26-.2-.65-.15-.96,.15-.95,.32-1.9,.58-2.83,.63-2.23,1.32-4.44,1.99-6.67,0-.03,.03-.06,.07-.14Z"/><path d="M37.94,12.17c-.57,0-1.11-.05-1.65,.02-.44,.06-.63-.11-.86-.45-.65-.98-1.35-1.93-2.04-2.88-.06-.08-.19-.14-.29-.16-.24-.04-.48-.05-.75-.07,0,.41,0,.79,0,1.18,0,.48,.01,.96,.01,1.43,0,.24,.09,.38,.33,.43,.28,.06,.56,.13,.87,.2l.02,.32h-3.52c-.08-.2-.04-.32,.22-.37,1.11-.24,.98-.1,.99-1.24,0-1.61,0-3.22,0-4.83,0-.62-.03-.66-.64-.79-.11-.02-.22-.05-.33-.06-.22-.02-.33-.12-.25-.37,.47,0,.96,0,1.44,0,.73,0,1.46,0,2.2,0,.3,0,.6,0,.9,.03,.73,.09,1.3,.41,1.53,1.14,.24,.78,.16,1.55-.45,2.13-.34,.33-.8,.53-1.23,.81,0,0,.04,.08,.09,.15,.56,.73,1.15,1.45,1.67,2.2,.37,.54,.91,.72,1.49,.83,.23,.05,.31,.14,.24,.36Zm-5.6-7.06c0,.98,0,1.89,0,2.8,0,.08,.09,.22,.15,.23,.63,.07,1.26,.12,1.86-.19,.56-.29,.86-.97,.75-1.68-.1-.63-.52-1.08-1.16-1.15-.5-.05-1.01-.01-1.6-.01Z"/><path d="M65.44,6.07c0,.63,0,1.19,0,1.74,.01,1.12,.04,2.24,.05,3.36,0,.32,.13,.5,.44,.55,.23,.04,.45,.1,.7,.15v.29h-3.05c-.08-.19-.01-.3,.24-.35,.96-.2,.89-.06,.91-1.11,.03-1.68,.04-3.35,.05-5.03,0-.51-.03-.55-.55-.65-.23-.05-.46-.09-.69-.13-.23-.03-.3-.15-.21-.39,.7,0,1.41,0,2.12,.01,.1,0,.22,.13,.29,.23,1.44,1.75,2.87,3.51,4.3,5.26,.07,.08,.14,.16,.25,.29,.01-.14,.02-.23,.02-.33-.02-1.48-.05-2.95-.06-4.43,0-.31-.12-.48-.42-.53-.16-.03-.32-.08-.49-.1-.23-.03-.31-.15-.23-.37h3.05v.31c-.24,.06-.46,.12-.69,.15-.38,.05-.49,.28-.5,.62,0,.69-.02,1.38-.02,2.07,0,1.44,0,2.89,.03,4.33,0,.18-.05,.29-.21,.3-.1,0-.24-.05-.31-.13-1.6-1.95-3.2-3.9-4.8-5.85-.06-.07-.11-.13-.23-.26Z"/><path d="M78.46,8.25h3.22c.05,.18,.05,.32-.19,.35-.12,.02-.24,.06-.35,.09-.54,.13-.56,.15-.56,.71,0,.8,0,1.6,0,2.49-.99,.16-2,.37-3.02,.46-.6,.05-1.23,0-1.81-.14-1.27-.3-2.11-1.12-2.43-2.39-.3-1.2-.23-2.39,.41-3.48,.81-1.38,2.09-2,3.64-2,1,0,2,.19,3.04,.3v2.19c-.17,.01-.35,.1-.44-.22-.38-1.25-.93-1.64-2.28-1.7-1.91-.08-3.21,1.09-3.3,3-.03,.51-.01,1.05,.1,1.55,.34,1.49,1.77,2.44,3.38,2.28,.47-.05,.93-.19,1.4-.28,.19-.04,.27-.14,.27-.35-.01-.64-.01-1.29,0-1.93,0-.29-.13-.43-.39-.49-.16-.03-.32-.08-.49-.11-.2-.03-.27-.13-.19-.36Z"/><path d="M12.54,9.54h-.34c-.05-.23-.11-.46-.16-.7-.04-.24-.18-.39-.42-.39-.69,0-1.37,0-2.06,0v3.15c.69,0,1.35,0,2.01,0,1.28,0,1.28,0,1.91-1.13,.12-.22,.24-.4,.57-.26-.21,.64-.41,1.28-.64,1.91-.02,.06-.17,.11-.27,.1-1.51,0-3.02-.03-4.53-.04-.44,0-.88,0-1.36,0-.02-.13-.09-.29,.19-.35,.32-.07,.73-.1,.91-.31,.17-.2,.1-.61,.1-.93,0-1.69,0-3.38,0-5.06,0-.32-.14-.46-.44-.5-.18-.02-.34-.09-.52-.11-.23-.03-.31-.14-.23-.37h6.11l.13,1.82h-.38c-.08-.24-.17-.48-.25-.73-.11-.34-.33-.51-.69-.51-.85,0-1.71,0-2.61,0v2.78c.3,0,.63,0,.96,0,.33,0,.67-.02,1-.02,.28,0,.43-.15,.49-.41,.03-.13,.07-.26,.09-.39,.03-.25,.16-.36,.42-.27v2.74Z"/><path d="M38.4,4.83v-.31h6.12l.13,1.83-.37,.02c-.09-.26-.19-.5-.26-.75-.1-.34-.33-.51-.69-.51-.85,0-1.71,0-2.61,0v2.74c.69,0,1.41,0,2.12-.01,.09,0,.21-.15,.27-.26,.07-.15,.1-.32,.14-.48,.07-.32,.07-.33,.43-.3v2.72c-.25,.1-.37,.01-.42-.26-.16-.83-.17-.82-1.01-.82-.51,0-1.02,0-1.55,0v3.14c.14,0,.26,.02,.38,.02,.78,0,1.56-.02,2.33,0,.37,0,.64-.14,.83-.45,.14-.24,.3-.47,.42-.72,.11-.22,.25-.32,.54-.21-.17,.53-.37,1.05-.51,1.59-.09,.35-.26,.44-.62,.44-1.81-.02-3.62-.01-5.43-.01-.08,0-.15,0-.24,0v-.35c.28-.06,.55-.12,.82-.18,.23-.05,.37-.16,.37-.43,0-1.94,0-3.89,0-5.83,0-.25-.12-.36-.35-.41-.28-.06-.56-.13-.85-.2Z"/><path d="M46.59,9.92h.46c.08,.27,.16,.55,.26,.82,.42,1.14,2.07,1.42,2.86,.5,.45-.52,.38-1.39-.21-1.85-.38-.3-.83-.5-1.26-.73-.4-.22-.82-.39-1.21-.63-1.33-.8-1.01-2.39-.14-3.07,.77-.61,1.65-.73,2.58-.56,.38,.07,.87,.09,1.09,.33,.19,.21,.08,.71,.09,1.07,0,.25,0,.51,0,.75-.3,.11-.43,.02-.5-.28-.28-1.14-1.09-1.63-2.11-1.31-.45,.14-.75,.43-.84,.9-.1,.49,.06,.92,.49,1.18,.37,.23,.78,.42,1.17,.62,.34,.17,.68,.32,1.01,.5,.81,.46,1.28,1.14,1.18,2.1-.1,.96-.66,1.57-1.55,1.9-.86,.32-1.72,.23-2.59,.02-.26-.06-.6-.08-.74-.25-.13-.16-.04-.49-.04-.75,0-.42,0-.84,0-1.27Z"/><path d="M53.07,11.98v-2.06h.45c.08,.26,.15,.52,.24,.78,.41,1.15,2.04,1.46,2.86,.55,.45-.5,.41-1.36-.14-1.83-.32-.27-.7-.46-1.07-.66-.45-.24-.92-.44-1.37-.69-1.47-.83-1.1-2.59-.04-3.27,.86-.55,1.77-.57,2.73-.35q.84,.2,.84,1.05c0,.34,0,.69,0,1.04-.29,.11-.42,.03-.5-.29-.26-1.11-1.08-1.61-2.09-1.3-.47,.14-.79,.45-.87,.95-.08,.5,.11,.91,.54,1.16,.45,.26,.93,.47,1.39,.71,.34,.18,.7,.35,1.02,.56,1.23,.84,1.24,2.61,.03,3.48-.88,.64-1.87,.64-2.87,.45-.4-.07-.79-.2-1.14-.3Z"/><path d="M3.69,4.53v.27s-.06,.04-.09,.05c-.28,.06-.56,.13-.85,.16-.35,.04-.46,.24-.47,.57,0,.53-.02,1.07-.02,1.6,0,1.37,.01,2.73,.02,4.1,0,.09,0,.18,.02,.3,.47,0,.93,0,1.4,0,.4,0,.8,0,1.2,0,.39,0,.69-.14,.88-.49,.12-.21,.27-.41,.36-.63,.13-.3,.32-.44,.67-.31l-.7,2.05H0v-.32c.28-.06,.55-.12,.82-.17,.23-.05,.37-.16,.37-.43,0-1.77,.02-3.53,.03-5.3,0-.02,0-.04,0-.07,0-.85,.16-.79-.92-1.01C-.01,4.84-.01,4.84,0,4.53H3.69Z"/><path d="M62.7,4.53v.31c-.28,.06-.55,.13-.82,.18-.26,.05-.38,.19-.39,.46,0,1.9-.02,3.8-.02,5.7,0,.46,.09,.52,.54,.6,.22,.04,.44,.06,.68,.1l.02,.33h-3.52c-.1-.24,0-.34,.25-.38,1.08-.19,.94-.12,.94-1.15,0-1.69,0-3.38,0-5.07,0-.34-.12-.52-.45-.58-.17-.03-.34-.09-.52-.11-.23-.03-.31-.14-.24-.38h3.51Z"/><path d="M83.82,11.72c0,.32-.27,.62-.6,.63-.35,.01-.64-.26-.64-.61,0-.35,.24-.62,.59-.63,.35-.01,.64,.26,.65,.61Z"/><path d="M86.05,11.72c0-.36,.28-.62,.64-.61,.33,.01,.61,.3,.6,.63,0,.32-.3,.61-.62,.62-.35,0-.63-.28-.62-.64Z"/><path d="M90.4,11.74c0,.35-.27,.61-.6,.62-.35,0-.63-.28-.63-.63,0-.36,.28-.62,.64-.61,.34,0,.6,.28,.59,.62Z"/></svg>