<?xml version="1.0" encoding="UTF-8"?><svg id="a" xmlns="http://www.w3.org/2000/svg" viewBox="0 0 75.9 144.82"><defs><style>.b{fill:#fff;}</style></defs><path class="b" d="M72.4,75.9c-.9,0-1.79-.34-2.47-1.02L1.03,5.97C-.34,4.61-.34,2.39,1.03,1.02,2.39-.34,4.61-.34,5.98,1.02L74.88,69.93c1.37,1.37,1.37,3.58,0,4.95-.68,.68-1.58,1.02-2.47,1.02Z"/><path class="b" d="M3.5,144.82c-.9,0-1.79-.34-2.48-1.03-1.37-1.37-1.37-3.58,0-4.95L69.93,69.94c1.37-1.37,3.58-1.37,4.95,0,1.37,1.37,1.37,3.58,0,4.95L5.98,143.8c-.68,.68-1.58,1.03-2.48,1.03Z"/></svg>