<?xml version="1.0" encoding="UTF-8"?><svg id="a" xmlns="http://www.w3.org/2000/svg" viewBox="0 0 75.9 144.82"><defs><style>.b{fill:#fff;}</style></defs><path class="b" d="M3.5,75.9c.9,0,1.79-.34,2.47-1.02L74.88,5.97c1.37-1.37,1.37-3.58,0-4.95-1.37-1.37-3.58-1.37-4.95,0L1.03,69.93c-1.37,1.37-1.37,3.58,0,4.95,.68,.68,1.58,1.02,2.47,1.02Z"/><path class="b" d="M72.4,144.82c.9,0,1.79-.34,2.48-1.03,1.37-1.37,1.37-3.58,0-4.95L5.97,69.94c-1.37-1.37-3.58-1.37-4.95,0-1.37,1.37-1.37,3.58,0,4.95l68.9,68.9c.68,.68,1.58,1.03,2.48,1.03Z"/></svg>