<svg xmlns="http://www.w3.org/2000/svg" xmlns:xlink="http://www.w3.org/1999/xlink" width="70.247" height="54.844" viewBox="0 0 70.247 54.844">
  <defs>
    <filter id="Tracé_4" x="27.82" y="0" width="42.427" height="54.811" filterUnits="userSpaceOnUse">
      <feOffset dy="3" input="SourceAlpha"/>
      <feGaussianBlur stdDeviation="3" result="blur"/>
      <feFlood flood-opacity="0.161"/>
      <feComposite operator="in" in2="blur"/>
      <feComposite in="SourceGraphic"/>
    </filter>
    <filter id="Tracé_5" x="0" y="0.017" width="42.437" height="54.826" filterUnits="userSpaceOnUse">
      <feOffset dy="3" input="SourceAlpha"/>
      <feGaussianBlur stdDeviation="3" result="blur-2"/>
      <feFlood flood-opacity="0.161"/>
      <feComposite operator="in" in2="blur-2"/>
      <feComposite in="SourceGraphic"/>
    </filter>
  </defs>
  <g id="quote" transform="translate(9 6)">
    <g transform="matrix(1, 0, 0, 1, -9, -6)" filter="url(#Tracé_4)">
      <path id="Tracé_4-2" data-name="Tracé 4" d="M20.31,24.215a37.181,37.181,0,0,1-3.666-1.583,12.035,12.035,0,0,1-5.833-12.48,12.159,12.159,0,0,1,24.015.2,23.029,23.029,0,0,1-.912,10.361c-2.333,8-7.69,13.079-15.464,15.757a5.682,5.682,0,0,1-1.307.331,2.382,2.382,0,0,1-2.5-1.38,2.487,2.487,0,0,1,.338-2.844c.765-.964,1.56-1.907,2.285-2.9a25.161,25.161,0,0,0,3.04-5.457Z" transform="translate(26.17 6)" fill="#fff"/>
    </g>
    <g transform="matrix(1, 0, 0, 1, -9, -6)" filter="url(#Tracé_5)">
      <path id="Tracé_5-2" data-name="Tracé 5" d="M9.854,24.142c-.912-.3-1.649-.488-2.347-.774A12.155,12.155,0,1,1,24.169,10.029a21.358,21.358,0,0,1-.128,7.351,23.405,23.405,0,0,1-5,11.568,24.131,24.131,0,0,1-12.1,7.787,2.5,2.5,0,0,1-2.789-1.1,2.537,2.537,0,0,1,.15-2.994c1.033-1.352,2.141-2.655,3.069-4.074.915-1.4,1.647-2.918,2.482-4.429Z" transform="translate(9 6.01)" fill="#fff"/>
    </g>
  </g>
</svg>
